<svg xmlns="http://www.w3.org/2000/svg" id="Layer_1" data-name="Layer 1" viewBox="0 0 1049 556"><defs><style>.cls-2{fill:#fff;fill-opacity:0}.cls-11,.cls-3{isolation:isolate;font-size:16px}.cls-3{fill:#222}.cls-11,.cls-3{font-family:ArialMT, Arial}.cls-4{fill:#36c}.cls-5{fill:#dc3912}.cls-6{fill:#f90}.cls-7{fill:#109618}.cls-9{fill:#ccc}.cls-11{fill:#444}.cls-13{letter-spacing:-0.0181em}</style><clipPath id="clip-path"><path fill="none" d="M165 0h600v464H165z"/></clipPath></defs><path d="M781 0h268v94H781z" class="cls-2"/><path d="M781 0h268v16H781z" class="cls-2"/><text class="cls-3" transform="translate(819 13.6)">Unoptimized</text><path d="M781 0h32v16h-32z" class="cls-4"/><path d="M781 26h268v16H781z" class="cls-2"/><text class="cls-3" transform="translate(819 39.6)">Optimized Media</text><path d="M781 26h32v16h-32z" class="cls-5"/><path d="M781 52h268v16H781z" class="cls-2"/><text class="cls-3" transform="translate(819 65.6)">New Stage Fright</text><path d="M781 52h32v16h-32z" class="cls-6"/><path d="M781 78h268v16H781z" class="cls-2"/><text class="cls-3" transform="translate(819 91.6)">Code Split</text><path d="M781 78h32v16h-32z" class="cls-7"/><path d="M165 0h600v464H165z" class="cls-2"/><g clip-path="url(#clip-path)"><path d="M165 0h1v464h-1zM315 0h1v464h-1zM465 0h1v464h-1zM614 0h1v464h-1zM764 0h1v464h-1z" class="cls-9"/><path d="M166 18h119v14H166zM166 111h408v13H166zM166 203h355v14H166zM166 296h578v14H166zM166 389h35v13h-35z" class="cls-4"/><path d="M166 33h114v13H166zM166 125h150v14H166zM166 218h311v13H166zM166 311h453v13H166zM166 403h30v14h-30z" class="cls-5"/><path d="M166 47h134v14H166zM166 140h134v13H166zM166 232h331v14H166zM166 325h398v14H166zM166 418h11v13h-11z" class="cls-6"/><path d="M166 62h89v13h-89zM166 154h109v14H166zM166 247h285v14H166zM166 340h383v13H166zM165.999 432h1.997v14h-1.997z" class="cls-7"/><path fill="#333" d="M165 0h1v464h-1z"/></g><text class="cls-11" transform="translate(161.05 487.6)">0</text><text class="cls-11" transform="translate(295.23 487.6)">3,000</text><text class="cls-11" transform="translate(444.98 487.6)">6,000</text><text class="cls-11" transform="translate(594.73 487.6)">9,000</text><text class="cls-11" transform="translate(740.031 487.6)">12,000</text><text class="cls-3" transform="translate(-.398 52.4)">First Contentful Paint</text><text class="cls-3" transform="translate(59.148 145)">Speed Index</text><text class="cls-3" transform="translate(17.992 237.6)"><tspan letter-spacing="-.037em">T</tspan><tspan x="9.18" y="0">ime to Interactive</tspan></text><text class="cls-3" transform="translate(17.984 330.2)">Main<tspan x="34.68" y="0" class="cls-13"> </tspan><tspan x="38.836" y="0">Thread </tspan><tspan x="93.977" y="0" class="cls-13">W</tspan><tspan x="108.789" y="0">ork</tspan></text><text class="cls-3" transform="translate(52.93 422.8)">Input Latency</text><text fill="#222" class="cls-3" font-size="16" font-style="italic" style="isolation:isolate" transform="translate(429.078 554.1)"><tspan letter-spacing="-.009em">Time (ms)</tspan></text><path d="M165 540.5h600v16H165z" class="cls-2"/></svg>
